<svg width="48" height="48" viewBox="0 0 48 48" fill="none" xmlns="http://www.w3.org/2000/svg">
<path d="M24 48C37.2548 48 48 37.2548 48 24C48 10.7452 37.2548 0 24 0C10.7452 0 0 10.7452 0 24C0 37.2548 10.7452 48 24 48Z" fill="white"/>
<path d="M24 0C10.7351 0 0 10.6996 0 23.9205C0 37.1414 10.7351 47.841 24 47.841C37.265 47.841 48 37.1414 48 23.9205C48 10.6996 37.265 0 24 0ZM24 37.9171C16.2486 37.9171 9.95677 31.6462 9.95677 23.9205C9.95677 16.1948 16.2486 9.92378 24 9.92378C31.7514 9.92378 38.0432 16.1948 38.0432 23.9205C38.0432 31.6462 31.7514 37.9171 24 37.9171Z" fill="url(#paint0_linear_2956_8609)"/>
<path d="M27.4045 28.415H20.5937C20.0099 28.415 19.5234 27.9301 19.5234 27.3482V20.5277C19.5234 19.9458 20.0099 19.4609 20.5937 19.4609H27.4369C28.0207 19.4609 28.5072 19.9458 28.5072 20.5277V27.3482C28.5072 27.9301 28.0207 28.415 27.4045 28.415Z" fill="#2059EB"/>
<defs>
<linearGradient id="paint0_linear_2956_8609" x1="24" y1="47.841" x2="24" y2="0" gradientUnits="userSpaceOnUse">
<stop stop-color="#1447EA"/>
<stop offset="1" stop-color="#2B65FB"/>
</linearGradient>
</defs>
</svg>
