<svg width="48" height="48" viewBox="0 0 48 48" fill="none" xmlns="http://www.w3.org/2000/svg">
<path d="M24 48C37.2548 48 48 37.2548 48 24C48 10.7452 37.2548 0 24 0C10.7452 0 0 10.7452 0 24C0 37.2548 10.7452 48 24 48Z" fill="#FCEAE7"/>
<path d="M35.5123 11.8398L25.3984 19.3516L27.2687 14.9197L35.5123 11.8398Z" fill="#E2761B" stroke="#E2761B" stroke-width="0.32" stroke-linecap="round" stroke-linejoin="round"/>
<path d="M12.1641 11.8398L22.1966 19.4227L20.4178 14.9197L12.1641 11.8398Z" fill="#E4761B" stroke="#E4761B" stroke-width="0.32" stroke-linecap="round" stroke-linejoin="round"/>
<path d="M31.8734 29.2539L29.1797 33.3806L34.943 34.9665L36.5999 29.3454L31.8734 29.2539Z" fill="#E4761B" stroke="#E4761B" stroke-width="0.32" stroke-linecap="round" stroke-linejoin="round"/>
<path d="M11.0938 29.3454L12.7404 34.9665L18.5038 33.3806L15.8102 29.2539L11.0938 29.3454Z" fill="#E4761B" stroke="#E4761B" stroke-width="0.32" stroke-linecap="round" stroke-linejoin="round"/>
<path d="M18.1763 22.2787L16.5703 24.7081L22.293 24.9622L22.0897 18.8125L18.1763 22.2787Z" fill="#E4761B" stroke="#E4761B" stroke-width="0.32" stroke-linecap="round" stroke-linejoin="round"/>
<path d="M29.4948 22.2795L25.5306 18.7422L25.3984 24.963L31.111 24.7089L29.4948 22.2795Z" fill="#E4761B" stroke="#E4761B" stroke-width="0.32" stroke-linecap="round" stroke-linejoin="round"/>
<path d="M18.5039 33.3774L21.9396 31.7004L18.9715 29.3828L18.5039 33.3774Z" fill="#E4761B" stroke="#E4761B" stroke-width="0.32" stroke-linecap="round" stroke-linejoin="round"/>
<path d="M25.7305 31.7004L29.1763 33.3774L28.6986 29.3828L25.7305 31.7004Z" fill="#E4761B" stroke="#E4761B" stroke-width="0.32" stroke-linecap="round" stroke-linejoin="round"/>
<path d="M29.1763 33.3802L25.7305 31.7031L26.0049 33.9495L25.9744 34.8947L29.1763 33.3802Z" fill="#D7C1B3" stroke="#D7C1B3" stroke-width="0.32" stroke-linecap="round" stroke-linejoin="round"/>
<path d="M18.5039 33.3802L21.7058 34.8947L21.6855 33.9495L21.9396 31.7031L18.5039 33.3802Z" fill="#D7C1B3" stroke="#D7C1B3" stroke-width="0.32" stroke-linecap="round" stroke-linejoin="round"/>
<path d="M21.7571 27.9015L18.8906 27.0578L20.9134 26.1328L21.7571 27.9015Z" fill="#233447" stroke="#233447" stroke-width="0.32" stroke-linecap="round" stroke-linejoin="round"/>
<path d="M25.9141 27.9015L26.7577 26.1328L28.7907 27.0578L25.9141 27.9015Z" fill="#233447" stroke="#233447" stroke-width="0.32" stroke-linecap="round" stroke-linejoin="round"/>
<path d="M18.5022 33.3806L18.9901 29.2539L15.8086 29.3454L18.5022 33.3806Z" fill="#CD6116" stroke="#CD6116" stroke-width="0.32" stroke-linecap="round" stroke-linejoin="round"/>
<path d="M28.6875 29.2539L29.1754 33.3806L31.8691 29.3454L28.6875 29.2539Z" fill="#CD6116" stroke="#CD6116" stroke-width="0.32" stroke-linecap="round" stroke-linejoin="round"/>
<path d="M31.1071 24.707L25.3945 24.9611L25.9231 27.8987L26.7668 26.1301L28.7997 27.0551L31.1071 24.707Z" fill="#CD6116" stroke="#CD6116" stroke-width="0.32" stroke-linecap="round" stroke-linejoin="round"/>
<path d="M18.8878 27.0551L20.9208 26.1301L21.7543 27.8987L22.293 24.9611L16.5703 24.707L18.8878 27.0551Z" fill="#CD6116" stroke="#CD6116" stroke-width="0.32" stroke-linecap="round" stroke-linejoin="round"/>
<path d="M16.5703 24.707L18.9692 29.3828L18.8878 27.0551L16.5703 24.707Z" fill="#E4751F" stroke="#E4751F" stroke-width="0.32" stroke-linecap="round" stroke-linejoin="round"/>
<path d="M28.8008 27.0551L28.6992 29.3828L31.1082 24.707L28.8008 27.0551Z" fill="#E4751F" stroke="#E4751F" stroke-width="0.32" stroke-linecap="round" stroke-linejoin="round"/>
<path d="M22.2965 24.9609L21.7578 27.8985L22.4287 31.3647L22.5811 26.8007L22.2965 24.9609Z" fill="#E4751F" stroke="#E4751F" stroke-width="0.32" stroke-linecap="round" stroke-linejoin="round"/>
<path d="M25.3955 24.9609L25.1211 26.7906L25.243 31.3647L25.9241 27.8985L25.3955 24.9609Z" fill="#E4751F" stroke="#E4751F" stroke-width="0.32" stroke-linecap="round" stroke-linejoin="round"/>
<path d="M25.9232 27.8983L25.2422 31.3645L25.7301 31.6999L28.6982 29.3824L28.7998 27.0547L25.9232 27.8983Z" fill="#F6851B" stroke="#F6851B" stroke-width="0.32" stroke-linecap="round" stroke-linejoin="round"/>
<path d="M18.8906 27.0547L18.972 29.3824L21.9401 31.6999L22.428 31.3645L21.7571 27.8983L18.8906 27.0547Z" fill="#F6851B" stroke="#F6851B" stroke-width="0.32" stroke-linecap="round" stroke-linejoin="round"/>
<path d="M25.975 34.8935L26.0055 33.9482L25.7513 33.7245H21.9193L21.6855 33.9482L21.7058 34.8935L18.5039 33.3789L19.622 34.2938L21.8888 35.8695H25.7818L28.0587 34.2938L29.1768 33.3789L25.975 34.8935Z" fill="#C0AD9E" stroke="#C0AD9E" stroke-width="0.32" stroke-linecap="round" stroke-linejoin="round"/>
<path d="M25.7331 31.7026L25.2452 31.3672H22.4295L21.9416 31.7026L21.6875 33.949L21.9213 33.7253H25.7534L26.0075 33.949L25.7331 31.7026Z" fill="#161616" stroke="#161616" stroke-width="0.32" stroke-linecap="round" stroke-linejoin="round"/>
<path d="M35.9358 19.8395L36.7998 15.6923L35.509 11.8398L25.7305 19.0974L29.4914 22.279L34.8075 23.8342L35.9867 22.462L35.4786 22.096L36.2917 21.354L35.6613 20.8661L36.4744 20.2461L35.9358 19.8395Z" fill="#763D16" stroke="#763D16" stroke-width="0.32" stroke-linecap="round" stroke-linejoin="round"/>
<path d="M10.8828 15.6923L11.7468 19.8395L11.1979 20.2461L12.0111 20.8661L11.391 21.354L12.2042 22.096L11.696 22.462L12.8649 23.8342L18.1811 22.279L21.942 19.0974L12.1636 11.8398L10.8828 15.6923Z" fill="#763D16" stroke="#763D16" stroke-width="0.32" stroke-linecap="round" stroke-linejoin="round"/>
<path d="M34.8042 23.8325L29.4882 22.2773L31.1044 24.7067L28.6953 29.3825L31.8667 29.3418H36.5934L34.8042 23.8325Z" fill="#F6851B" stroke="#F6851B" stroke-width="0.32" stroke-linecap="round" stroke-linejoin="round"/>
<path d="M18.1785 22.2773L12.8624 23.8325L11.0938 29.3418H15.8102L18.9714 29.3825L16.5725 24.7067L18.1785 22.2773Z" fill="#F6851B" stroke="#F6851B" stroke-width="0.32" stroke-linecap="round" stroke-linejoin="round"/>
<path d="M25.3948 24.9646L25.7302 19.0995L27.2752 14.9219H20.4141L21.9388 19.0995L22.2945 24.9646L22.4165 26.8145L22.4267 31.3683H25.2423L25.2626 26.8145L25.3948 24.9646Z" fill="#F6851B" stroke="#F6851B" stroke-width="0.32" stroke-linecap="round" stroke-linejoin="round"/>
</svg>
