<svg width="48" height="48" viewBox="0 0 48 48" fill="none" xmlns="http://www.w3.org/2000/svg">
<path d="M24 48C37.2548 48 48 37.2548 48 24C48 10.7452 37.2548 0 24 0C10.7452 0 0 10.7452 0 24C0 37.2548 10.7452 48 24 48Z" fill="#E7EEFC"/>
<path d="M13.4616 17.3217C19.2779 11.6271 28.7079 11.6271 34.524 17.3217L35.2242 18.0071C35.515 18.2918 35.515 18.7534 35.2242 19.0382L32.8296 21.3827C32.6843 21.525 32.4485 21.525 32.3029 21.3827L31.3397 20.4395C27.2822 16.4668 20.7035 16.4668 16.646 20.4395L15.6144 21.4495C15.469 21.5919 15.2332 21.5919 15.0878 21.4495L12.6933 19.1051C12.4025 18.8203 12.4025 18.3587 12.6933 18.074L13.4616 17.3217ZM39.4763 22.1703L41.6075 24.2569C41.8981 24.5416 41.8981 25.0033 41.6075 25.288L31.9979 34.6967C31.7071 34.9815 31.2356 34.9815 30.9448 34.6967L24.1246 28.0191C24.0519 27.9479 23.934 27.9479 23.8613 28.0191L17.0412 34.6967C16.7504 34.9815 16.2789 34.9815 15.9881 34.6967L6.37827 25.2879C6.08745 25.0031 6.08745 24.5415 6.37827 24.2568L8.50944 22.1702C8.80025 21.8855 9.27174 21.8855 9.56256 22.1702L16.3829 28.8479C16.4556 28.9191 16.5735 28.9191 16.6462 28.8479L23.4662 22.1702C23.757 21.8855 24.2285 21.8854 24.5193 22.1702C24.5193 22.1702 24.5193 22.1702 24.5193 22.1702L31.3396 28.8479C31.4123 28.9191 31.5302 28.9191 31.6029 28.8479L38.4232 22.1703C38.7141 21.8856 39.1854 21.8856 39.4763 22.1703Z" fill="#3B99FC"/>
</svg>
