<svg width="384" height="352" viewBox="0 0 384 352" fill="none" xmlns="http://www.w3.org/2000/svg">
<mask id="mask0" style="mask-type:alpha" maskUnits="userSpaceOnUse" x="0" y="0" width="384" height="352">
<rect width="384" height="352" rx="12" transform="matrix(-1 0 0 1 384 0)" fill="url(#paint0)"/>
</mask>
<g mask="url(#mask0)">
<g filter="url(#filter0)">
<path d="M34.4903 197.051C-8.98892 110.387 -28.2428 12.4335 -32.9917 -146.262C-42.612 -467.751 313.367 50.5641 212.483 211.155C148.874 312.411 90.0269 307.748 34.4903 197.051Z" fill="#39AFFD" fill-opacity="0.31"/>
</g>
<g opacity="0.6" filter="url(#filter1)">
<path d="M251.769 761.314C579.159 449.086 617.414 256.948 553.225 229.468C423.879 174.094 366.751 -2.49829 289.975 -214.56C194.931 -477.08 95.5298 347.95 399.295 310.612C549.969 292.091 -2.20221 1003.52 251.769 761.314Z" fill="url(#paint1)"/>
</g>
<g filter="url(#filter2)">
<path d="M233.222 46.8385L233.107 46.4553C214.011 -17.4354 230.502 -76.0161 207.805 -138.705C161.495 -266.619 81.4121 136.028 195.319 209.631C266.924 255.9 476.452 266.992 413.287 209.631C388.061 186.723 366.705 183.886 335.428 170.496C306.559 158.137 287.309 151.139 267.079 122.325C247.407 94.3078 238.161 63.3662 233.222 46.8385Z" fill="url(#paint2)"/>
</g>
</g>
<defs>
<filter id="filter0" x="-167.158" y="-383.36" width="531.639" height="801.076" filterUnits="userSpaceOnUse" color-interpolation-filters="sRGB">
<feFlood flood-opacity="0" result="BackgroundImageFix"/>
<feBlend mode="normal" in="SourceGraphic" in2="BackgroundImageFix" result="shape"/>
<feGaussianBlur stdDeviation="66.9873" result="effect1_foregroundBlur_2956_8753"/>
</filter>
<filter id="filter1" x="-129.344" y="-579.533" width="1021.89" height="1704.49" filterUnits="userSpaceOnUse" color-interpolation-filters="sRGB">
<feFlood flood-opacity="0" result="BackgroundImageFix"/>
<feBlend mode="normal" in="SourceGraphic" in2="BackgroundImageFix" result="shape"/>
<feGaussianBlur stdDeviation="156.649" result="effect1_foregroundBlur_2956_8753"/>
</filter>
<filter id="filter2" x="64.0308" y="-236.587" width="433.939" height="558.16" filterUnits="userSpaceOnUse" color-interpolation-filters="sRGB">
<feFlood flood-opacity="0" result="BackgroundImageFix"/>
<feBlend mode="normal" in="SourceGraphic" in2="BackgroundImageFix" result="shape"/>
<feGaussianBlur stdDeviation="36.4851" result="effect1_foregroundBlur_2956_8753"/>
</filter>
<radialGradient id="paint0" cx="0" cy="0" r="1" gradientUnits="userSpaceOnUse" gradientTransform="translate(378.057) rotate(-180) scale(346.971 238.1)">
<stop stop-color="white"/>
<stop offset="1" stop-color="white" stop-opacity="0"/>
</radialGradient>
<linearGradient id="paint1" x1="381.64" y1="147.13" x2="447.276" y2="465.09" gradientUnits="userSpaceOnUse">
<stop stop-color="#9960FC"/>
<stop offset="1" stop-color="#58A3E9" stop-opacity="0"/>
</linearGradient>
<linearGradient id="paint2" x1="227.27" y1="-21.4858" x2="97.8425" y2="67.9859" gradientUnits="userSpaceOnUse">
<stop stop-color="#FF8F6A"/>
<stop offset="1" stop-color="#957BFF" stop-opacity="0.24"/>
</linearGradient>
</defs>
</svg>
